<mxfile>
    <diagram id="iMxcmPr24rwtnFYZ4upU" name="Page-1">
        <mxGraphModel dx="932" dy="455" grid="1" gridSize="10" guides="1" tooltips="1" connect="1" arrows="1" fold="1" page="1" pageScale="1" pageWidth="827" pageHeight="1169" math="0" shadow="0">
            <root>
                <mxCell id="0"/>
                <mxCell id="1" parent="0"/>
                <mxCell id="219" style="edgeStyle=orthogonalEdgeStyle;rounded=0;orthogonalLoop=1;jettySize=auto;html=1;entryX=0;entryY=0.5;entryDx=0;entryDy=0;exitX=1;exitY=0.5;exitDx=0;exitDy=0;" parent="1" source="10" target="66" edge="1">
                    <mxGeometry relative="1" as="geometry">
                        <Array as="points">
                            <mxPoint x="640" y="557"/>
                            <mxPoint x="640" y="493"/>
                        </Array>
                    </mxGeometry>
                </mxCell>
                <mxCell id="239" style="edgeStyle=orthogonalEdgeStyle;rounded=0;orthogonalLoop=1;jettySize=auto;html=1;exitX=1;exitY=0.5;exitDx=0;exitDy=0;" parent="1" source="238" target="53" edge="1">
                    <mxGeometry relative="1" as="geometry">
                        <Array as="points">
                            <mxPoint x="741" y="791"/>
                        </Array>
                    </mxGeometry>
                </mxCell>
                <mxCell id="2" value="publicaton" style="swimlane;fontStyle=0;childLayout=stackLayout;horizontal=1;startSize=40;fillColor=#1ba1e2;horizontalStack=0;resizeParent=1;resizeParentMax=0;resizeLast=0;collapsible=1;marginBottom=0;fontColor=#ffffff;strokeColor=#FFFFFF;" parent="1" vertex="1">
                    <mxGeometry x="310" y="248" width="120" height="582" as="geometry"/>
                </mxCell>
                <mxCell id="3" value="id" style="text;strokeColor=none;fillColor=none;align=left;verticalAlign=top;spacingLeft=4;spacingRight=4;overflow=hidden;rotatable=0;points=[[0,0.5],[1,0.5]];portConstraint=eastwest;fontColor=#FF9999;fontStyle=1" parent="2" vertex="1">
                    <mxGeometry y="40" width="120" height="26" as="geometry"/>
                </mxCell>
                <mxCell id="4" value="type_id" style="text;strokeColor=none;fillColor=none;align=left;verticalAlign=top;spacingLeft=4;spacingRight=4;overflow=hidden;rotatable=0;points=[[0,0.5],[1,0.5]];portConstraint=eastwest;fontColor=#FFFF33;" parent="2" vertex="1">
                    <mxGeometry y="66" width="120" height="24" as="geometry"/>
                </mxCell>
                <mxCell id="5" value="thematic_id" style="text;strokeColor=none;fillColor=none;align=left;verticalAlign=top;spacingLeft=4;spacingRight=4;overflow=hidden;rotatable=0;points=[[0,0.5],[1,0.5]];portConstraint=eastwest;fontColor=#FFFF33;" parent="2" vertex="1">
                    <mxGeometry y="90" width="120" height="24" as="geometry"/>
                </mxCell>
                <mxCell id="19" value="localisation_id" style="text;strokeColor=none;fillColor=none;align=left;verticalAlign=top;spacingLeft=4;spacingRight=4;overflow=hidden;rotatable=0;points=[[0,0.5],[1,0.5]];portConstraint=eastwest;fontColor=#FFFF33;" parent="2" vertex="1">
                    <mxGeometry y="114" width="120" height="26" as="geometry"/>
                </mxCell>
                <mxCell id="163" value="bookcollection_id" style="text;strokeColor=none;fillColor=none;align=left;verticalAlign=top;spacingLeft=4;spacingRight=4;overflow=hidden;rotatable=0;points=[[0,0.5],[1,0.5]];portConstraint=eastwest;fontColor=#FFFF33;" parent="2" vertex="1">
                    <mxGeometry y="140" width="120" height="26" as="geometry"/>
                </mxCell>
                <mxCell id="13" value="language_id" style="text;strokeColor=none;fillColor=none;align=left;verticalAlign=top;spacingLeft=4;spacingRight=4;overflow=hidden;rotatable=0;points=[[0,0.5],[1,0.5]];portConstraint=eastwest;fontColor=#FFFF33;" parent="2" vertex="1">
                    <mxGeometry y="166" width="120" height="26" as="geometry"/>
                </mxCell>
                <mxCell id="217" value="user_id" style="text;strokeColor=none;fillColor=none;align=left;verticalAlign=top;spacingLeft=4;spacingRight=4;overflow=hidden;rotatable=0;points=[[0,0.5],[1,0.5]];portConstraint=eastwest;fontColor=#FFFF33;" parent="2" vertex="1">
                    <mxGeometry y="192" width="120" height="26" as="geometry"/>
                </mxCell>
                <mxCell id="6" value="title" style="text;strokeColor=none;fillColor=none;align=left;verticalAlign=top;spacingLeft=4;spacingRight=4;overflow=hidden;rotatable=0;points=[[0,0.5],[1,0.5]];portConstraint=eastwest;" parent="2" vertex="1">
                    <mxGeometry y="218" width="120" height="26" as="geometry"/>
                </mxCell>
                <mxCell id="8" value="mention" style="text;strokeColor=none;fillColor=none;align=left;verticalAlign=top;spacingLeft=4;spacingRight=4;overflow=hidden;rotatable=0;points=[[0,0.5],[1,0.5]];portConstraint=eastwest;" parent="2" vertex="1">
                    <mxGeometry y="244" width="120" height="26" as="geometry"/>
                </mxCell>
                <mxCell id="20" value="cote" style="text;strokeColor=none;fillColor=none;align=left;verticalAlign=top;spacingLeft=4;spacingRight=4;overflow=hidden;rotatable=0;points=[[0,0.5],[1,0.5]];portConstraint=eastwest;" parent="2" vertex="1">
                    <mxGeometry y="270" width="120" height="26" as="geometry"/>
                </mxCell>
                <mxCell id="9" value="publication_date" style="text;strokeColor=none;fillColor=none;align=left;verticalAlign=top;spacingLeft=4;spacingRight=4;overflow=hidden;rotatable=0;points=[[0,0.5],[1,0.5]];portConstraint=eastwest;" parent="2" vertex="1">
                    <mxGeometry y="296" width="120" height="26" as="geometry"/>
                </mxCell>
                <mxCell id="10" value="paging" style="text;strokeColor=none;fillColor=none;align=left;verticalAlign=top;spacingLeft=4;spacingRight=4;overflow=hidden;rotatable=0;points=[[0,0.5],[1,0.5]];portConstraint=eastwest;" parent="2" vertex="1">
                    <mxGeometry y="322" width="120" height="26" as="geometry"/>
                </mxCell>
                <mxCell id="11" value="volume_number" style="text;strokeColor=none;fillColor=none;align=left;verticalAlign=top;spacingLeft=4;spacingRight=4;overflow=hidden;rotatable=0;points=[[0,0.5],[1,0.5]];portConstraint=eastwest;" parent="2" vertex="1">
                    <mxGeometry y="348" width="120" height="26" as="geometry"/>
                </mxCell>
                <mxCell id="14" value="summary" style="text;strokeColor=none;fillColor=none;align=left;verticalAlign=top;spacingLeft=4;spacingRight=4;overflow=hidden;rotatable=0;points=[[0,0.5],[1,0.5]];portConstraint=eastwest;" parent="2" vertex="1">
                    <mxGeometry y="374" width="120" height="26" as="geometry"/>
                </mxCell>
                <mxCell id="15" value="issn_isbn" style="text;strokeColor=none;fillColor=none;align=left;verticalAlign=top;spacingLeft=4;spacingRight=4;overflow=hidden;rotatable=0;points=[[0,0.5],[1,0.5]];portConstraint=eastwest;" parent="2" vertex="1">
                    <mxGeometry y="400" width="120" height="26" as="geometry"/>
                </mxCell>
                <mxCell id="16" value="support" style="text;strokeColor=none;fillColor=none;align=left;verticalAlign=top;spacingLeft=4;spacingRight=4;overflow=hidden;rotatable=0;points=[[0,0.5],[1,0.5]];portConstraint=eastwest;" parent="2" vertex="1">
                    <mxGeometry y="426" width="120" height="26" as="geometry"/>
                </mxCell>
                <mxCell id="17" value="source_address" style="text;strokeColor=none;fillColor=none;align=left;verticalAlign=top;spacingLeft=4;spacingRight=4;overflow=hidden;rotatable=0;points=[[0,0.5],[1,0.5]];portConstraint=eastwest;" parent="2" vertex="1">
                    <mxGeometry y="452" width="120" height="26" as="geometry"/>
                </mxCell>
                <mxCell id="237" value="image" style="text;strokeColor=none;fillColor=none;align=left;verticalAlign=top;spacingLeft=4;spacingRight=4;overflow=hidden;rotatable=0;points=[[0,0.5],[1,0.5]];portConstraint=eastwest;" parent="2" vertex="1">
                    <mxGeometry y="478" width="120" height="26" as="geometry"/>
                </mxCell>
                <mxCell id="18" value="url" style="text;strokeColor=none;fillColor=none;align=left;verticalAlign=top;spacingLeft=4;spacingRight=4;overflow=hidden;rotatable=0;points=[[0,0.5],[1,0.5]];portConstraint=eastwest;" parent="2" vertex="1">
                    <mxGeometry y="504" width="120" height="26" as="geometry"/>
                </mxCell>
                <mxCell id="238" value="update-date" style="text;strokeColor=none;fillColor=none;align=left;verticalAlign=top;spacingLeft=4;spacingRight=4;overflow=hidden;rotatable=0;points=[[0,0.5],[1,0.5]];portConstraint=eastwest;" parent="2" vertex="1">
                    <mxGeometry y="530" width="120" height="26" as="geometry"/>
                </mxCell>
                <mxCell id="22" value="access" style="text;strokeColor=none;fillColor=none;align=left;verticalAlign=top;spacingLeft=4;spacingRight=4;overflow=hidden;rotatable=0;points=[[0,0.5],[1,0.5]];portConstraint=eastwest;" parent="2" vertex="1">
                    <mxGeometry y="556" width="120" height="26" as="geometry"/>
                </mxCell>
                <mxCell id="23" value="publication_type" style="swimlane;fontStyle=0;childLayout=stackLayout;horizontal=1;startSize=50;fillColor=#1ba1e2;horizontalStack=0;resizeParent=1;resizeParentMax=0;resizeLast=0;collapsible=1;marginBottom=0;fontColor=#ffffff;strokeColor=#FFFFFF;" parent="1" vertex="1">
                    <mxGeometry x="7.27" y="60" width="122.73" height="128" as="geometry"/>
                </mxCell>
                <mxCell id="24" value="id" style="text;strokeColor=none;fillColor=none;align=left;verticalAlign=top;spacingLeft=4;spacingRight=4;overflow=hidden;rotatable=0;points=[[0,0.5],[1,0.5]];portConstraint=eastwest;fontColor=#FF9999;fontStyle=1" parent="23" vertex="1">
                    <mxGeometry y="50" width="122.73" height="26" as="geometry"/>
                </mxCell>
                <mxCell id="25" value="name" style="text;strokeColor=none;fillColor=none;align=left;verticalAlign=top;spacingLeft=4;spacingRight=4;overflow=hidden;rotatable=0;points=[[0,0.5],[1,0.5]];portConstraint=eastwest;" parent="23" vertex="1">
                    <mxGeometry y="76" width="122.73" height="26" as="geometry"/>
                </mxCell>
                <mxCell id="26" value="description" style="text;strokeColor=none;fillColor=none;align=left;verticalAlign=top;spacingLeft=4;spacingRight=4;overflow=hidden;rotatable=0;points=[[0,0.5],[1,0.5]];portConstraint=eastwest;" parent="23" vertex="1">
                    <mxGeometry y="102" width="122.73" height="26" as="geometry"/>
                </mxCell>
                <mxCell id="27" value="thematic" style="swimlane;fontStyle=0;childLayout=stackLayout;horizontal=1;startSize=40;fillColor=#1ba1e2;horizontalStack=0;resizeParent=1;resizeParentMax=0;resizeLast=0;collapsible=1;marginBottom=0;fontColor=#ffffff;strokeColor=#FFFFFF;" parent="1" vertex="1">
                    <mxGeometry x="450" y="52" width="146.37" height="144" as="geometry"/>
                </mxCell>
                <mxCell id="28" value="id" style="text;strokeColor=none;fillColor=none;align=left;verticalAlign=top;spacingLeft=4;spacingRight=4;overflow=hidden;rotatable=0;points=[[0,0.5],[1,0.5]];portConstraint=eastwest;fontColor=#FF9999;fontStyle=1" parent="27" vertex="1">
                    <mxGeometry y="40" width="146.37" height="26" as="geometry"/>
                </mxCell>
                <mxCell id="29" value="name" style="text;strokeColor=none;fillColor=none;align=left;verticalAlign=top;spacingLeft=4;spacingRight=4;overflow=hidden;rotatable=0;points=[[0,0.5],[1,0.5]];portConstraint=eastwest;" parent="27" vertex="1">
                    <mxGeometry y="66" width="146.37" height="26" as="geometry"/>
                </mxCell>
                <mxCell id="30" value="description" style="text;strokeColor=none;fillColor=none;align=left;verticalAlign=top;spacingLeft=4;spacingRight=4;overflow=hidden;rotatable=0;points=[[0,0.5],[1,0.5]];portConstraint=eastwest;" parent="27" vertex="1">
                    <mxGeometry y="92" width="146.37" height="26" as="geometry"/>
                </mxCell>
                <mxCell id="31" value="thesaurus_id" style="text;strokeColor=none;fillColor=none;align=left;verticalAlign=top;spacingLeft=4;spacingRight=4;overflow=hidden;rotatable=0;points=[[0,0.5],[1,0.5]];portConstraint=eastwest;fontColor=#FFFF33;" parent="27" vertex="1">
                    <mxGeometry y="118" width="146.37" height="26" as="geometry"/>
                </mxCell>
                <mxCell id="32" value="author" style="swimlane;fontStyle=0;childLayout=stackLayout;horizontal=1;startSize=26;fillColor=#1ba1e2;horizontalStack=0;resizeParent=1;resizeParentMax=0;resizeLast=0;collapsible=1;marginBottom=0;fontColor=#ffffff;strokeColor=#FFFFFF;" parent="1" vertex="1">
                    <mxGeometry x="13.63" y="641" width="76.37" height="104" as="geometry"/>
                </mxCell>
                <mxCell id="33" value="id" style="text;strokeColor=none;fillColor=none;align=left;verticalAlign=top;spacingLeft=4;spacingRight=4;overflow=hidden;rotatable=0;points=[[0,0.5],[1,0.5]];portConstraint=eastwest;fontColor=#FF9999;fontStyle=1" parent="32" vertex="1">
                    <mxGeometry y="26" width="76.37" height="26" as="geometry"/>
                </mxCell>
                <mxCell id="34" value="name" style="text;strokeColor=none;fillColor=none;align=left;verticalAlign=top;spacingLeft=4;spacingRight=4;overflow=hidden;rotatable=0;points=[[0,0.5],[1,0.5]];portConstraint=eastwest;" parent="32" vertex="1">
                    <mxGeometry y="52" width="76.37" height="26" as="geometry"/>
                </mxCell>
                <mxCell id="35" value="address" style="text;strokeColor=none;fillColor=none;align=left;verticalAlign=top;spacingLeft=4;spacingRight=4;overflow=hidden;rotatable=0;points=[[0,0.5],[1,0.5]];portConstraint=eastwest;" parent="32" vertex="1">
                    <mxGeometry y="78" width="76.37" height="26" as="geometry"/>
                </mxCell>
                <mxCell id="36" value="editor" style="swimlane;fontStyle=0;childLayout=stackLayout;horizontal=1;startSize=26;fillColor=#1ba1e2;horizontalStack=0;resizeParent=1;resizeParentMax=0;resizeLast=0;collapsible=1;marginBottom=0;fontColor=#ffffff;strokeColor=#FFFFFF;" parent="1" vertex="1">
                    <mxGeometry x="698.87" y="260" width="107.73" height="130" as="geometry"/>
                </mxCell>
                <mxCell id="38" value="id" style="text;strokeColor=none;fillColor=none;align=left;verticalAlign=top;spacingLeft=4;spacingRight=4;overflow=hidden;rotatable=0;points=[[0,0.5],[1,0.5]];portConstraint=eastwest;fontColor=#FF9999;fontStyle=1" parent="36" vertex="1">
                    <mxGeometry y="26" width="107.73" height="26" as="geometry"/>
                </mxCell>
                <mxCell id="39" value="firstname" style="text;strokeColor=none;fillColor=none;align=left;verticalAlign=top;spacingLeft=4;spacingRight=4;overflow=hidden;rotatable=0;points=[[0,0.5],[1,0.5]];portConstraint=eastwest;" parent="36" vertex="1">
                    <mxGeometry y="52" width="107.73" height="26" as="geometry"/>
                </mxCell>
                <mxCell id="40" value="lastname" style="text;strokeColor=none;fillColor=none;align=left;verticalAlign=top;spacingLeft=4;spacingRight=4;overflow=hidden;rotatable=0;points=[[0,0.5],[1,0.5]];portConstraint=eastwest;" parent="36" vertex="1">
                    <mxGeometry y="78" width="107.73" height="26" as="geometry"/>
                </mxCell>
                <mxCell id="37" value="address" style="text;strokeColor=none;fillColor=none;align=left;verticalAlign=top;spacingLeft=4;spacingRight=4;overflow=hidden;rotatable=0;points=[[0,0.5],[1,0.5]];portConstraint=eastwest;" parent="36" vertex="1">
                    <mxGeometry y="104" width="107.73" height="26" as="geometry"/>
                </mxCell>
                <mxCell id="41" value="thesaurus" style="swimlane;fontStyle=0;childLayout=stackLayout;horizontal=1;startSize=26;fillColor=#1ba1e2;horizontalStack=0;resizeParent=1;resizeParentMax=0;resizeLast=0;collapsible=1;marginBottom=0;fontColor=#ffffff;strokeColor=#FFFFFF;" parent="1" vertex="1">
                    <mxGeometry x="702.73" y="100" width="110" height="104" as="geometry"/>
                </mxCell>
                <mxCell id="42" value="id" style="text;strokeColor=none;fillColor=none;align=left;verticalAlign=top;spacingLeft=4;spacingRight=4;overflow=hidden;rotatable=0;points=[[0,0.5],[1,0.5]];portConstraint=eastwest;fontColor=#FF9999;fontStyle=1" parent="41" vertex="1">
                    <mxGeometry y="26" width="110" height="26" as="geometry"/>
                </mxCell>
                <mxCell id="215" value="ancestor_id" style="text;strokeColor=none;fillColor=none;align=left;verticalAlign=top;spacingLeft=4;spacingRight=4;overflow=hidden;rotatable=0;points=[[0,0.5],[1,0.5]];portConstraint=eastwest;" parent="41" vertex="1">
                    <mxGeometry y="52" width="110" height="26" as="geometry"/>
                </mxCell>
                <mxCell id="44" value="theme" style="text;strokeColor=none;fillColor=none;align=left;verticalAlign=top;spacingLeft=4;spacingRight=4;overflow=hidden;rotatable=0;points=[[0,0.5],[1,0.5]];portConstraint=eastwest;" parent="41" vertex="1">
                    <mxGeometry y="78" width="110" height="26" as="geometry"/>
                </mxCell>
                <mxCell id="45" value="user" style="swimlane;fontStyle=0;childLayout=stackLayout;horizontal=1;startSize=26;fillColor=#1ba1e2;horizontalStack=0;resizeParent=1;resizeParentMax=0;resizeLast=0;collapsible=1;marginBottom=0;fontColor=#ffffff;strokeColor=#FFFFFF;" parent="1" vertex="1">
                    <mxGeometry x="685" y="530" width="112.73" height="234" as="geometry"/>
                </mxCell>
                <mxCell id="46" value="id" style="text;strokeColor=none;fillColor=none;align=left;verticalAlign=top;spacingLeft=4;spacingRight=4;overflow=hidden;rotatable=0;points=[[0,0.5],[1,0.5]];portConstraint=eastwest;fontColor=#FF9999;fontStyle=1" parent="45" vertex="1">
                    <mxGeometry y="26" width="112.73" height="26" as="geometry"/>
                </mxCell>
                <mxCell id="47" value="firstname" style="text;strokeColor=none;fillColor=none;align=left;verticalAlign=top;spacingLeft=4;spacingRight=4;overflow=hidden;rotatable=0;points=[[0,0.5],[1,0.5]];portConstraint=eastwest;" parent="45" vertex="1">
                    <mxGeometry y="52" width="112.73" height="26" as="geometry"/>
                </mxCell>
                <mxCell id="48" value="lastname" style="text;strokeColor=none;fillColor=none;align=left;verticalAlign=top;spacingLeft=4;spacingRight=4;overflow=hidden;rotatable=0;points=[[0,0.5],[1,0.5]];portConstraint=eastwest;" parent="45" vertex="1">
                    <mxGeometry y="78" width="112.73" height="26" as="geometry"/>
                </mxCell>
                <mxCell id="49" value="email" style="text;strokeColor=none;fillColor=none;align=left;verticalAlign=top;spacingLeft=4;spacingRight=4;overflow=hidden;rotatable=0;points=[[0,0.5],[1,0.5]];portConstraint=eastwest;" parent="45" vertex="1">
                    <mxGeometry y="104" width="112.73" height="26" as="geometry"/>
                </mxCell>
                <mxCell id="241" value="roles" style="text;strokeColor=none;fillColor=none;align=left;verticalAlign=top;spacingLeft=4;spacingRight=4;overflow=hidden;rotatable=0;points=[[0,0.5],[1,0.5]];portConstraint=eastwest;" parent="45" vertex="1">
                    <mxGeometry y="130" width="112.73" height="26" as="geometry"/>
                </mxCell>
                <mxCell id="50" value="phone" style="text;strokeColor=none;fillColor=none;align=left;verticalAlign=top;spacingLeft=4;spacingRight=4;overflow=hidden;rotatable=0;points=[[0,0.5],[1,0.5]];portConstraint=eastwest;" parent="45" vertex="1">
                    <mxGeometry y="156" width="112.73" height="26" as="geometry"/>
                </mxCell>
                <mxCell id="51" value="address" style="text;strokeColor=none;fillColor=none;align=left;verticalAlign=top;spacingLeft=4;spacingRight=4;overflow=hidden;rotatable=0;points=[[0,0.5],[1,0.5]];portConstraint=eastwest;" parent="45" vertex="1">
                    <mxGeometry y="182" width="112.73" height="26" as="geometry"/>
                </mxCell>
                <mxCell id="53" value="newsletter" style="text;strokeColor=none;fillColor=none;align=left;verticalAlign=top;spacingLeft=4;spacingRight=4;overflow=hidden;rotatable=0;points=[[0,0.5],[1,0.5]];portConstraint=eastwest;" parent="45" vertex="1">
                    <mxGeometry y="208" width="112.73" height="26" as="geometry"/>
                </mxCell>
                <mxCell id="55" value="keywordRef" style="swimlane;fontStyle=0;childLayout=stackLayout;horizontal=1;startSize=26;fillColor=#1ba1e2;horizontalStack=0;resizeParent=1;resizeParentMax=0;resizeLast=0;collapsible=1;marginBottom=0;fontColor=#ffffff;strokeColor=#FFFFFF;" parent="1" vertex="1">
                    <mxGeometry x="5.449999999999999" y="240" width="92.73" height="78" as="geometry"/>
                </mxCell>
                <mxCell id="220" value="id" style="text;strokeColor=none;fillColor=none;align=left;verticalAlign=top;spacingLeft=4;spacingRight=4;overflow=hidden;rotatable=0;points=[[0,0.5],[1,0.5]];portConstraint=eastwest;fontColor=#FF9999;fontStyle=1" parent="55" vertex="1">
                    <mxGeometry y="26" width="92.73" height="26" as="geometry"/>
                </mxCell>
                <mxCell id="57" value="name" style="text;strokeColor=none;fillColor=none;align=left;verticalAlign=top;spacingLeft=4;spacingRight=4;overflow=hidden;rotatable=0;points=[[0,0.5],[1,0.5]];portConstraint=eastwest;" parent="55" vertex="1">
                    <mxGeometry y="52" width="92.73" height="26" as="geometry"/>
                </mxCell>
                <mxCell id="61" value="localisation" style="swimlane;fontStyle=0;childLayout=stackLayout;horizontal=1;startSize=26;fillColor=#1ba1e2;horizontalStack=0;resizeParent=1;resizeParentMax=0;resizeLast=0;collapsible=1;marginBottom=0;fontColor=#ffffff;strokeColor=#FFFFFF;" parent="1" vertex="1">
                    <mxGeometry x="265" y="50" width="112.73" height="78" as="geometry"/>
                </mxCell>
                <mxCell id="62" value="id" style="text;strokeColor=none;fillColor=none;align=left;verticalAlign=top;spacingLeft=4;spacingRight=4;overflow=hidden;rotatable=0;points=[[0,0.5],[1,0.5]];portConstraint=eastwest;fontColor=#FF6666;" parent="61" vertex="1">
                    <mxGeometry y="26" width="112.73" height="26" as="geometry"/>
                </mxCell>
                <mxCell id="63" value="name" style="text;strokeColor=none;fillColor=none;align=left;verticalAlign=top;spacingLeft=4;spacingRight=4;overflow=hidden;rotatable=0;points=[[0,0.5],[1,0.5]];portConstraint=eastwest;" parent="61" vertex="1">
                    <mxGeometry y="52" width="112.73" height="26" as="geometry"/>
                </mxCell>
                <mxCell id="64" value="bookcollection" style="swimlane;fontStyle=0;childLayout=stackLayout;horizontal=1;startSize=26;fillColor=#1ba1e2;horizontalStack=0;resizeParent=1;resizeParentMax=0;resizeLast=0;collapsible=1;marginBottom=0;fontColor=#ffffff;strokeColor=#FFFFFF;" parent="1" vertex="1">
                    <mxGeometry x="702.73" y="432" width="100" height="74" as="geometry"/>
                </mxCell>
                <mxCell id="65" value="id" style="text;strokeColor=none;fillColor=none;align=left;verticalAlign=top;spacingLeft=4;spacingRight=4;overflow=hidden;rotatable=0;points=[[0,0.5],[1,0.5]];portConstraint=eastwest;fontColor=#FF9999;fontStyle=1" parent="64" vertex="1">
                    <mxGeometry y="26" width="100" height="22" as="geometry"/>
                </mxCell>
                <mxCell id="66" value="name" style="text;strokeColor=none;fillColor=none;align=left;verticalAlign=top;spacingLeft=4;spacingRight=4;overflow=hidden;rotatable=0;points=[[0,0.5],[1,0.5]];portConstraint=eastwest;" parent="64" vertex="1">
                    <mxGeometry y="48" width="100" height="26" as="geometry"/>
                </mxCell>
                <mxCell id="67" value="keywordGeo" style="swimlane;fontStyle=0;childLayout=stackLayout;horizontal=1;startSize=31;fillColor=#1ba1e2;horizontalStack=0;resizeParent=1;resizeParentMax=0;resizeLast=0;collapsible=1;marginBottom=0;fontColor=#ffffff;strokeColor=#FFFFFF;" parent="1" vertex="1">
                    <mxGeometry x="7.27" y="459" width="92.73" height="83" as="geometry"/>
                </mxCell>
                <mxCell id="68" value="id" style="text;strokeColor=none;fillColor=none;align=left;verticalAlign=top;spacingLeft=4;spacingRight=4;overflow=hidden;rotatable=0;points=[[0,0.5],[1,0.5]];portConstraint=eastwest;fontColor=#FF9999;fontStyle=1" parent="67" vertex="1">
                    <mxGeometry y="31" width="92.73" height="26" as="geometry"/>
                </mxCell>
                <mxCell id="194" value="name" style="text;strokeColor=none;fillColor=none;align=left;verticalAlign=top;spacingLeft=4;spacingRight=4;overflow=hidden;rotatable=0;points=[[0,0.5],[1,0.5]];portConstraint=eastwest;" parent="67" vertex="1">
                    <mxGeometry y="57" width="92.73" height="26" as="geometry"/>
                </mxCell>
                <mxCell id="74" style="edgeStyle=orthogonalEdgeStyle;rounded=0;orthogonalLoop=1;jettySize=auto;html=1;exitX=1;exitY=0.5;exitDx=0;exitDy=0;entryX=0;entryY=0.5;entryDx=0;entryDy=0;" parent="1" source="168" target="47" edge="1">
                    <mxGeometry relative="1" as="geometry">
                        <mxPoint x="597.2699999999979" y="545.25" as="sourcePoint"/>
                    </mxGeometry>
                </mxCell>
                <mxCell id="75" style="edgeStyle=orthogonalEdgeStyle;rounded=0;orthogonalLoop=1;jettySize=auto;html=1;exitX=0;exitY=0.5;exitDx=0;exitDy=0;entryX=1.011;entryY=0.205;entryDx=0;entryDy=0;entryPerimeter=0;" parent="1" source="167" target="16" edge="1">
                    <mxGeometry relative="1" as="geometry">
                        <mxPoint x="507" y="550" as="targetPoint"/>
                        <mxPoint x="520.000000000002" y="545.25" as="sourcePoint"/>
                    </mxGeometry>
                </mxCell>
                <mxCell id="80" style="edgeStyle=orthogonalEdgeStyle;rounded=0;orthogonalLoop=1;jettySize=auto;html=1;entryX=0;entryY=0.5;entryDx=0;entryDy=0;exitX=1;exitY=0.5;exitDx=0;exitDy=0;" parent="1" source="29" edge="1">
                    <mxGeometry relative="1" as="geometry">
                        <mxPoint x="663.8699999999999" y="90" as="sourcePoint"/>
                        <mxPoint x="702.73" y="165" as="targetPoint"/>
                        <Array as="points">
                            <mxPoint x="650" y="131"/>
                            <mxPoint x="650" y="165"/>
                        </Array>
                    </mxGeometry>
                </mxCell>
                <mxCell id="85" style="edgeStyle=orthogonalEdgeStyle;rounded=0;orthogonalLoop=1;jettySize=auto;html=1;exitX=0;exitY=0.5;exitDx=0;exitDy=0;" parent="1" source="159" edge="1">
                    <mxGeometry relative="1" as="geometry">
                        <mxPoint x="510" y="380" as="sourcePoint"/>
                        <mxPoint x="430" y="480" as="targetPoint"/>
                        <Array as="points">
                            <mxPoint x="430" y="480"/>
                        </Array>
                    </mxGeometry>
                </mxCell>
                <mxCell id="86" style="edgeStyle=orthogonalEdgeStyle;rounded=0;orthogonalLoop=1;jettySize=auto;html=1;entryX=0;entryY=0.5;entryDx=0;entryDy=0;exitX=1;exitY=0.5;exitDx=0;exitDy=0;" parent="1" source="158" target="39" edge="1">
                    <mxGeometry relative="1" as="geometry">
                        <mxPoint x="580" y="380" as="sourcePoint"/>
                    </mxGeometry>
                </mxCell>
                <mxCell id="91" style="edgeStyle=orthogonalEdgeStyle;rounded=0;orthogonalLoop=1;jettySize=auto;html=1;exitX=0.5;exitY=0;exitDx=0;exitDy=0;entryX=0.261;entryY=-0.242;entryDx=0;entryDy=0;entryPerimeter=0;" parent="1" source="2" target="124" edge="1">
                    <mxGeometry relative="1" as="geometry">
                        <mxPoint x="355" y="172" as="sourcePoint"/>
                    </mxGeometry>
                </mxCell>
                <mxCell id="95" style="edgeStyle=orthogonalEdgeStyle;rounded=0;orthogonalLoop=1;jettySize=auto;html=1;exitX=1;exitY=0.5;exitDx=0;exitDy=0;entryX=0.439;entryY=0.987;entryDx=0;entryDy=0;entryPerimeter=0;" parent="1" source="4" target="31" edge="1">
                    <mxGeometry relative="1" as="geometry">
                        <mxPoint x="562.27" y="220" as="sourcePoint"/>
                    </mxGeometry>
                </mxCell>
                <mxCell id="109" value="N" style="text;html=1;align=center;verticalAlign=middle;resizable=0;points=[];autosize=1;" parent="1" vertex="1">
                    <mxGeometry x="430" y="648" width="20" height="20" as="geometry"/>
                </mxCell>
                <mxCell id="112" value="1" style="text;html=1;align=center;verticalAlign=middle;resizable=0;points=[];autosize=1;" parent="1" vertex="1">
                    <mxGeometry x="90" y="404" width="20" height="20" as="geometry"/>
                </mxCell>
                <mxCell id="113" value="N" style="text;html=1;align=center;verticalAlign=middle;resizable=0;points=[];autosize=1;" parent="1" vertex="1">
                    <mxGeometry x="430" y="459" width="20" height="20" as="geometry"/>
                </mxCell>
                <mxCell id="114" value="N" style="text;html=1;align=center;verticalAlign=middle;resizable=0;points=[];autosize=1;" parent="1" vertex="1">
                    <mxGeometry x="665" y="328" width="20" height="20" as="geometry"/>
                </mxCell>
                <mxCell id="115" value="1" style="text;html=1;align=center;verticalAlign=middle;resizable=0;points=[];autosize=1;" parent="1" vertex="1">
                    <mxGeometry x="377.73" y="220" width="20" height="20" as="geometry"/>
                </mxCell>
                <mxCell id="116" value="N" style="text;html=1;align=center;verticalAlign=middle;resizable=0;points=[];autosize=1;" parent="1" vertex="1">
                    <mxGeometry x="130" y="142" width="20" height="20" as="geometry"/>
                </mxCell>
                <mxCell id="118" value="N" style="text;html=1;align=center;verticalAlign=middle;resizable=0;points=[];autosize=1;" parent="1" vertex="1">
                    <mxGeometry x="678.87" y="444" width="20" height="20" as="geometry"/>
                </mxCell>
                <mxCell id="119" value="1" style="text;html=1;align=center;verticalAlign=middle;resizable=0;points=[];autosize=1;" parent="1" vertex="1">
                    <mxGeometry x="425" y="298" width="20" height="20" as="geometry"/>
                </mxCell>
                <mxCell id="120" value="N" style="text;html=1;align=center;verticalAlign=middle;resizable=0;points=[];autosize=1;" parent="1" vertex="1">
                    <mxGeometry x="290" y="412" width="20" height="20" as="geometry"/>
                </mxCell>
                <mxCell id="123" value="1" style="text;html=1;align=center;verticalAlign=middle;resizable=0;points=[];autosize=1;" parent="1" vertex="1">
                    <mxGeometry x="280" y="308" width="20" height="20" as="geometry"/>
                </mxCell>
                <mxCell id="124" value="N" style="text;html=1;align=center;verticalAlign=middle;resizable=0;points=[];autosize=1;" parent="1" vertex="1">
                    <mxGeometry x="325" y="132" width="20" height="20" as="geometry"/>
                </mxCell>
                <mxCell id="129" value="N" style="text;html=1;align=center;verticalAlign=middle;resizable=0;points=[];autosize=1;" parent="1" vertex="1">
                    <mxGeometry x="660" y="570.5" width="20" height="20" as="geometry"/>
                </mxCell>
                <mxCell id="134" value="1" style="text;html=1;align=center;verticalAlign=middle;resizable=0;points=[];autosize=1;" parent="1" vertex="1">
                    <mxGeometry x="89.99999999999997" y="600" width="20" height="20" as="geometry"/>
                </mxCell>
                <mxCell id="135" value="N" style="text;html=1;align=center;verticalAlign=middle;resizable=0;points=[];autosize=1;" parent="1" vertex="1">
                    <mxGeometry x="290" y="558" width="20" height="20" as="geometry"/>
                </mxCell>
                <mxCell id="136" value="N" style="text;html=1;align=center;verticalAlign=middle;resizable=0;points=[];autosize=1;" parent="1" vertex="1">
                    <mxGeometry x="507.27000000000004" y="200" width="20" height="20" as="geometry"/>
                </mxCell>
                <mxCell id="137" value="N" style="text;html=1;align=center;verticalAlign=middle;resizable=0;points=[];autosize=1;" parent="1" vertex="1">
                    <mxGeometry x="43.63" y="550.5" width="20" height="20" as="geometry"/>
                </mxCell>
                <mxCell id="138" value="1" style="text;html=1;align=center;verticalAlign=middle;resizable=0;points=[];autosize=1;" parent="1" vertex="1">
                    <mxGeometry x="430" y="560" width="20" height="20" as="geometry"/>
                </mxCell>
                <mxCell id="139" value="0" style="text;html=1;align=center;verticalAlign=middle;resizable=0;points=[];autosize=1;" parent="1" vertex="1">
                    <mxGeometry x="596.37" y="132" width="20" height="20" as="geometry"/>
                </mxCell>
                <mxCell id="140" value="N" style="text;html=1;align=center;verticalAlign=middle;resizable=0;points=[];autosize=1;" parent="1" vertex="1">
                    <mxGeometry x="680" y="170" width="20" height="20" as="geometry"/>
                </mxCell>
                <mxCell id="153" value="1" style="text;html=1;align=center;verticalAlign=middle;resizable=0;points=[];autosize=1;" parent="1" vertex="1">
                    <mxGeometry x="270" y="770" width="20" height="20" as="geometry"/>
                </mxCell>
                <mxCell id="155" value="1" style="text;html=1;align=center;verticalAlign=middle;resizable=0;points=[];autosize=1;" parent="1" vertex="1">
                    <mxGeometry x="178.86" y="732" width="20" height="20" as="geometry"/>
                </mxCell>
                <mxCell id="157" value="publication_editor" style="swimlane;fontStyle=0;childLayout=stackLayout;horizontal=1;startSize=26;fillColor=#1ba1e2;horizontalStack=0;resizeParent=1;resizeParentMax=0;resizeLast=0;collapsible=1;marginBottom=0;fontColor=#ffffff;strokeColor=#FFFFFF;" parent="1" vertex="1">
                    <mxGeometry x="498.17" y="415" width="112.73" height="78" as="geometry"/>
                </mxCell>
                <mxCell id="158" value="editor_id" style="text;strokeColor=none;fillColor=none;align=left;verticalAlign=top;spacingLeft=4;spacingRight=4;overflow=hidden;rotatable=0;points=[[0,0.5],[1,0.5]];portConstraint=eastwest;fontColor=#FFFF33;" parent="157" vertex="1">
                    <mxGeometry y="26" width="112.73" height="26" as="geometry"/>
                </mxCell>
                <mxCell id="159" value="publication_id" style="text;strokeColor=none;fillColor=none;align=left;verticalAlign=top;spacingLeft=4;spacingRight=4;overflow=hidden;rotatable=0;points=[[0,0.5],[1,0.5]];portConstraint=eastwest;fontColor=#FFFF33;" parent="157" vertex="1">
                    <mxGeometry y="52" width="112.73" height="26" as="geometry"/>
                </mxCell>
                <mxCell id="160" style="edgeStyle=orthogonalEdgeStyle;rounded=0;orthogonalLoop=1;jettySize=auto;html=1;exitX=0;exitY=0.5;exitDx=0;exitDy=0;entryX=1;entryY=0.5;entryDx=0;entryDy=0;" parent="1" source="4" target="26" edge="1">
                    <mxGeometry relative="1" as="geometry">
                        <Array as="points">
                            <mxPoint x="240" y="326"/>
                            <mxPoint x="240" y="175"/>
                        </Array>
                    </mxGeometry>
                </mxCell>
                <mxCell id="161" value="1" style="text;html=1;align=center;verticalAlign=middle;resizable=0;points=[];autosize=1;" parent="1" vertex="1">
                    <mxGeometry x="478.16999999999996" y="459" width="20" height="20" as="geometry"/>
                </mxCell>
                <mxCell id="162" value="1" style="text;html=1;align=center;verticalAlign=middle;resizable=0;points=[];autosize=1;" parent="1" vertex="1">
                    <mxGeometry x="609.1" y="424" width="20" height="20" as="geometry"/>
                </mxCell>
                <mxCell id="166" value="borrow" style="swimlane;fontStyle=0;childLayout=stackLayout;horizontal=1;startSize=26;fillColor=#1ba1e2;horizontalStack=0;resizeParent=1;resizeParentMax=0;resizeLast=0;collapsible=1;marginBottom=0;fontColor=#ffffff;strokeColor=#FFFFFF;" parent="1" vertex="1">
                    <mxGeometry x="507.27" y="580" width="112.73" height="204" as="geometry"/>
                </mxCell>
                <mxCell id="242" value="id" style="text;strokeColor=none;fillColor=none;align=left;verticalAlign=top;spacingLeft=4;spacingRight=4;overflow=hidden;rotatable=0;points=[[0,0.5],[1,0.5]];portConstraint=eastwest;fontColor=#FF9999;fontStyle=1" parent="166" vertex="1">
                    <mxGeometry y="26" width="112.73" height="26" as="geometry"/>
                </mxCell>
                <mxCell id="167" value="publication_id" style="text;strokeColor=none;fillColor=none;align=left;verticalAlign=top;spacingLeft=4;spacingRight=4;overflow=hidden;rotatable=0;points=[[0,0.5],[1,0.5]];portConstraint=eastwest;fontColor=#FFFF33;" parent="166" vertex="1">
                    <mxGeometry y="52" width="112.73" height="26" as="geometry"/>
                </mxCell>
                <mxCell id="168" value="user_id" style="text;strokeColor=none;fillColor=none;align=left;verticalAlign=top;spacingLeft=4;spacingRight=4;overflow=hidden;rotatable=0;points=[[0,0.5],[1,0.5]];portConstraint=eastwest;fontColor=#FFFF33;" parent="166" vertex="1">
                    <mxGeometry y="78" width="112.73" height="26" as="geometry"/>
                </mxCell>
                <mxCell id="173" value="reservation_date" style="text;strokeColor=none;fillColor=none;align=left;verticalAlign=top;spacingLeft=4;spacingRight=4;overflow=hidden;rotatable=0;points=[[0,0.5],[1,0.5]];portConstraint=eastwest;" parent="166" vertex="1">
                    <mxGeometry y="104" width="112.73" height="22" as="geometry"/>
                </mxCell>
                <mxCell id="172" value="borrowed_date" style="text;strokeColor=none;fillColor=none;align=left;verticalAlign=top;spacingLeft=4;spacingRight=4;overflow=hidden;rotatable=0;points=[[0,0.5],[1,0.5]];portConstraint=eastwest;" parent="166" vertex="1">
                    <mxGeometry y="126" width="112.73" height="26" as="geometry"/>
                </mxCell>
                <mxCell id="179" value="time_limit" style="text;strokeColor=none;fillColor=none;align=left;verticalAlign=top;spacingLeft=4;spacingRight=4;overflow=hidden;rotatable=0;points=[[0,0.5],[1,0.5]];portConstraint=eastwest;" parent="166" vertex="1">
                    <mxGeometry y="152" width="112.73" height="26" as="geometry"/>
                </mxCell>
                <mxCell id="174" value="comment" style="text;strokeColor=none;fillColor=none;align=left;verticalAlign=top;spacingLeft=4;spacingRight=4;overflow=hidden;rotatable=0;points=[[0,0.5],[1,0.5]];portConstraint=eastwest;" parent="166" vertex="1">
                    <mxGeometry y="178" width="112.73" height="26" as="geometry"/>
                </mxCell>
                <mxCell id="175" value="1" style="text;html=1;align=center;verticalAlign=middle;resizable=0;points=[];autosize=1;" parent="1" vertex="1">
                    <mxGeometry x="487.27" y="620" width="20" height="20" as="geometry"/>
                </mxCell>
                <mxCell id="176" value="1" style="text;html=1;align=center;verticalAlign=middle;resizable=0;points=[];autosize=1;" parent="1" vertex="1">
                    <mxGeometry x="620" y="648" width="20" height="20" as="geometry"/>
                </mxCell>
                <mxCell id="180" value="language" style="swimlane;fontStyle=0;childLayout=stackLayout;horizontal=1;startSize=26;fillColor=#1ba1e2;horizontalStack=0;resizeParent=1;resizeParentMax=0;resizeLast=0;collapsible=1;marginBottom=0;fontColor=#ffffff;strokeColor=#FFFFFF;" parent="1" vertex="1">
                    <mxGeometry x="545.47" y="308" width="83.63" height="78" as="geometry"/>
                </mxCell>
                <mxCell id="181" value="id" style="text;strokeColor=none;fillColor=none;align=left;verticalAlign=top;spacingLeft=4;spacingRight=4;overflow=hidden;rotatable=0;points=[[0,0.5],[1,0.5]];portConstraint=eastwest;fontColor=#FF9999;fontStyle=1" parent="180" vertex="1">
                    <mxGeometry y="26" width="83.63" height="26" as="geometry"/>
                </mxCell>
                <mxCell id="182" value="name" style="text;strokeColor=none;fillColor=none;align=left;verticalAlign=top;spacingLeft=4;spacingRight=4;overflow=hidden;rotatable=0;points=[[0,0.5],[1,0.5]];portConstraint=eastwest;fontColor=#FFFFFF;" parent="180" vertex="1">
                    <mxGeometry y="52" width="83.63" height="26" as="geometry"/>
                </mxCell>
                <mxCell id="183" style="edgeStyle=orthogonalEdgeStyle;rounded=0;orthogonalLoop=1;jettySize=auto;html=1;exitX=1.021;exitY=0.071;exitDx=0;exitDy=0;entryX=0;entryY=0.5;entryDx=0;entryDy=0;fontColor=#FF9999;exitPerimeter=0;" parent="1" source="19" target="180" edge="1">
                    <mxGeometry relative="1" as="geometry"/>
                </mxCell>
                <mxCell id="184" value="N" style="text;html=1;align=center;verticalAlign=middle;resizable=0;points=[];autosize=1;" parent="1" vertex="1">
                    <mxGeometry x="520" y="356" width="20" height="20" as="geometry"/>
                </mxCell>
                <mxCell id="185" value="1" style="text;html=1;align=center;verticalAlign=middle;resizable=0;points=[];autosize=1;fontColor=#FFFFFF;" parent="1" vertex="1">
                    <mxGeometry x="430" y="366" width="20" height="20" as="geometry"/>
                </mxCell>
                <mxCell id="186" value="N" style="text;html=1;align=center;verticalAlign=middle;resizable=0;points=[];autosize=1;fontColor=#FFFFFF;" parent="1" vertex="1">
                    <mxGeometry x="742.73" y="770" width="20" height="20" as="geometry"/>
                </mxCell>
                <mxCell id="187" value="1" style="text;html=1;align=center;verticalAlign=middle;resizable=0;points=[];autosize=1;fontColor=#FFFFFF;" parent="1" vertex="1">
                    <mxGeometry x="139.99999999999997" y="770" width="20" height="20" as="geometry"/>
                </mxCell>
                <mxCell id="209" style="edgeStyle=orthogonalEdgeStyle;rounded=0;orthogonalLoop=1;jettySize=auto;html=1;entryX=1.019;entryY=0.11;entryDx=0;entryDy=0;entryPerimeter=0;fontColor=#FFFF33;exitX=0;exitY=0.5;exitDx=0;exitDy=0;" parent="1" source="206" target="35" edge="1">
                    <mxGeometry relative="1" as="geometry"/>
                </mxCell>
                <mxCell id="205" value="publication_author" style="swimlane;fontStyle=0;childLayout=stackLayout;horizontal=1;startSize=26;fillColor=#1ba1e2;horizontalStack=0;resizeParent=1;resizeParentMax=0;resizeLast=0;collapsible=1;marginBottom=0;fontColor=#ffffff;strokeColor=#FFFFFF;" parent="1" vertex="1">
                    <mxGeometry x="160" y="720" width="110" height="78" as="geometry"/>
                </mxCell>
                <mxCell id="206" value="author_id" style="text;strokeColor=none;fillColor=none;align=left;verticalAlign=top;spacingLeft=4;spacingRight=4;overflow=hidden;rotatable=0;points=[[0,0.5],[1,0.5]];portConstraint=eastwest;fontStyle=0;fontColor=#FFFF33;" parent="205" vertex="1">
                    <mxGeometry y="26" width="110" height="26" as="geometry"/>
                </mxCell>
                <mxCell id="207" value="publidation_id" style="text;strokeColor=none;fillColor=none;align=left;verticalAlign=top;spacingLeft=4;spacingRight=4;overflow=hidden;rotatable=0;points=[[0,0.5],[1,0.5]];portConstraint=eastwest;fontColor=#FFFF33;fontStyle=0" parent="205" vertex="1">
                    <mxGeometry y="52" width="110" height="26" as="geometry"/>
                </mxCell>
                <mxCell id="211" value="N" style="text;html=1;align=center;verticalAlign=middle;resizable=0;points=[];autosize=1;fontColor=#FFFFFF;" parent="1" vertex="1">
                    <mxGeometry x="90" y="700" width="20" height="20" as="geometry"/>
                </mxCell>
                <mxCell id="212" style="edgeStyle=orthogonalEdgeStyle;rounded=0;orthogonalLoop=1;jettySize=auto;html=1;entryX=0;entryY=0.5;entryDx=0;entryDy=0;fontColor=#FFFF33;exitX=1;exitY=0.5;exitDx=0;exitDy=0;" parent="1" source="206" target="17" edge="1">
                    <mxGeometry relative="1" as="geometry">
                        <mxPoint x="260" y="737" as="sourcePoint"/>
                        <mxPoint x="289.5999999999999" y="613.74" as="targetPoint"/>
                    </mxGeometry>
                </mxCell>
                <mxCell id="213" value="N" style="text;html=1;align=center;verticalAlign=middle;resizable=0;points=[];autosize=1;fontColor=#FFFFFF;" parent="1" vertex="1">
                    <mxGeometry x="290" y="683" width="20" height="20" as="geometry"/>
                </mxCell>
                <mxCell id="226" style="edgeStyle=orthogonalEdgeStyle;rounded=0;orthogonalLoop=1;jettySize=auto;html=1;entryX=0;entryY=0.5;entryDx=0;entryDy=0;" parent="1" source="221" target="10" edge="1">
                    <mxGeometry relative="1" as="geometry"/>
                </mxCell>
                <mxCell id="232" style="edgeStyle=orthogonalEdgeStyle;rounded=0;orthogonalLoop=1;jettySize=auto;html=1;entryX=0.328;entryY=0.974;entryDx=0;entryDy=0;entryPerimeter=0;" parent="1" source="221" target="194" edge="1">
                    <mxGeometry relative="1" as="geometry">
                        <Array as="points">
                            <mxPoint x="38" y="600"/>
                        </Array>
                    </mxGeometry>
                </mxCell>
                <mxCell id="221" value="keywordgeo_publication" style="swimlane;fontStyle=0;childLayout=stackLayout;horizontal=1;startSize=31;fillColor=#1ba1e2;horizontalStack=0;resizeParent=1;resizeParentMax=0;resizeLast=0;collapsible=1;marginBottom=0;fontColor=#ffffff;strokeColor=#FFFFFF;" parent="1" vertex="1">
                    <mxGeometry x="110" y="558" width="140" height="83" as="geometry"/>
                </mxCell>
                <mxCell id="225" value="kewordgeo-id" style="text;strokeColor=none;fillColor=none;align=left;verticalAlign=top;spacingLeft=4;spacingRight=4;overflow=hidden;rotatable=0;points=[[0,0.5],[1,0.5]];portConstraint=eastwest;fontColor=#FFFF33;fontStyle=0" parent="221" vertex="1">
                    <mxGeometry y="31" width="140" height="26" as="geometry"/>
                </mxCell>
                <mxCell id="224" value="publidation_id" style="text;strokeColor=none;fillColor=none;align=left;verticalAlign=top;spacingLeft=4;spacingRight=4;overflow=hidden;rotatable=0;points=[[0,0.5],[1,0.5]];portConstraint=eastwest;fontColor=#FFFF33;fontStyle=0" parent="221" vertex="1">
                    <mxGeometry y="57" width="140" height="26" as="geometry"/>
                </mxCell>
                <mxCell id="228" value="1" style="text;html=1;align=center;verticalAlign=middle;resizable=0;points=[];autosize=1;" parent="1" vertex="1">
                    <mxGeometry x="250" y="608" width="20" height="20" as="geometry"/>
                </mxCell>
                <mxCell id="233" style="edgeStyle=orthogonalEdgeStyle;rounded=0;orthogonalLoop=1;jettySize=auto;html=1;" parent="1" source="229" edge="1">
                    <mxGeometry relative="1" as="geometry">
                        <mxPoint x="30" y="320" as="targetPoint"/>
                    </mxGeometry>
                </mxCell>
                <mxCell id="229" value="keywordref_publication" style="swimlane;fontStyle=0;childLayout=stackLayout;horizontal=1;startSize=31;fillColor=#1ba1e2;horizontalStack=0;resizeParent=1;resizeParentMax=0;resizeLast=0;collapsible=1;marginBottom=0;fontColor=#ffffff;strokeColor=#FFFFFF;" parent="1" vertex="1">
                    <mxGeometry x="110" y="356" width="140" height="83" as="geometry"/>
                </mxCell>
                <mxCell id="230" value="kewordref-id" style="text;strokeColor=none;fillColor=none;align=left;verticalAlign=top;spacingLeft=4;spacingRight=4;overflow=hidden;rotatable=0;points=[[0,0.5],[1,0.5]];portConstraint=eastwest;fontColor=#FFFF33;fontStyle=0" parent="229" vertex="1">
                    <mxGeometry y="31" width="140" height="26" as="geometry"/>
                </mxCell>
                <mxCell id="231" value="publidation_id" style="text;strokeColor=none;fillColor=none;align=left;verticalAlign=top;spacingLeft=4;spacingRight=4;overflow=hidden;rotatable=0;points=[[0,0.5],[1,0.5]];portConstraint=eastwest;fontColor=#FFFF33;fontStyle=0" parent="229" vertex="1">
                    <mxGeometry y="57" width="140" height="26" as="geometry"/>
                </mxCell>
                <mxCell id="234" value="N" style="text;html=1;align=center;verticalAlign=middle;resizable=0;points=[];autosize=1;" parent="1" vertex="1">
                    <mxGeometry x="40" y="320" width="20" height="20" as="geometry"/>
                </mxCell>
                <mxCell id="235" style="edgeStyle=orthogonalEdgeStyle;rounded=0;orthogonalLoop=1;jettySize=auto;html=1;entryX=-0.028;entryY=0.821;entryDx=0;entryDy=0;entryPerimeter=0;" parent="1" source="230" target="163" edge="1">
                    <mxGeometry relative="1" as="geometry"/>
                </mxCell>
                <mxCell id="236" value="1" style="text;html=1;align=center;verticalAlign=middle;resizable=0;points=[];autosize=1;" parent="1" vertex="1">
                    <mxGeometry x="250" y="400" width="20" height="20" as="geometry"/>
                </mxCell>
                <mxCell id="240" value="1" style="text;html=1;align=center;verticalAlign=middle;resizable=0;points=[];autosize=1;" parent="1" vertex="1">
                    <mxGeometry x="440" y="790" width="20" height="20" as="geometry"/>
                </mxCell>
            </root>
        </mxGraphModel>
    </diagram>
</mxfile>